<?xml version="1.0" standalone="no"?>
<!DOCTYPE svg PUBLIC "-//W3C//DTD SVG 20010904//EN"
 "http://www.w3.org/TR/2001/REC-SVG-20010904/DTD/svg10.dtd">
<svg version="1.0" xmlns="http://www.w3.org/2000/svg"
 width="700.000000pt" height="700.000000pt" viewBox="0 0 700.000000 700.000000"
 preserveAspectRatio="xMidYMid meet">
<metadata>
Created by potrace 1.14, written by Peter Selinger 2001-2017
</metadata>
<g transform="translate(0.000000,700.000000) scale(0.100000,-0.100000)"
fill="#000000" stroke="none">
<path d="M2505 4663 c-57 -139 -243 -508 -342 -678 -234 -405 -447 -690 -707
-950 -275 -274 -507 -421 -785 -498 -67 -18 -110 -21 -373 -25 l-298 -4 0
-140 0 -140 288 5 c242 4 302 8 383 26 464 101 894 415 1307 953 42 54 76 97
77 96 1 -2 -9 -64 -23 -138 -33 -181 -37 -497 -9 -600 54 -190 171 -304 342
-332 307 -51 623 219 922 787 l63 120 0 -80 c0 -264 52 -490 141 -624 76 -115
183 -183 320 -204 122 -19 277 14 398 85 80 47 219 188 285 290 48 74 137 248
172 337 9 21 14 11 43 -79 58 -175 168 -332 305 -434 118 -89 236 -140 416
-178 90 -20 134 -21 833 -25 l737 -4 0 140 0 140 -747 4 c-742 3 -749 3 -828
26 -203 57 -334 159 -413 321 -80 163 -107 331 -99 610 8 251 14 296 118 900
32 190 62 360 65 378 l5 33 -143 -3 -143 -3 -28 -150 c-86 -458 -173 -884
-218 -1060 -147 -585 -315 -911 -523 -1017 -71 -36 -193 -50 -246 -28 -65 27
-117 112 -145 236 -22 95 -31 418 -16 570 39 381 146 909 270 1319 l39 130
-141 3 c-99 2 -143 -1 -148 -9 -4 -7 -19 -57 -34 -113 -56 -208 -209 -657
-315 -921 -251 -628 -513 -1049 -736 -1185 -70 -42 -160 -53 -213 -25 -127 65
-115 453 29 980 84 305 251 777 380 1075 37 85 70 165 74 178 l7 22 -148 0
-149 0 -49 -117z"/>
</g>
</svg>
