<svg width="448" height="508" viewBox="0 0 448 508" fill="none" xmlns="http://www.w3.org/2000/svg">
<g filter="url(#filter0_d_271_1196)">
<g clip-path="url(#clip0_271_1196)">
<g clip-path="url(#clip1_271_1196)">
<rect width="31" height="31" transform="translate(20 14.5)" fill="white" fill-opacity="0.06"/>
<rect x="26.8721" y="18.4961" width="20.1318" height="1.21094" fill="white" fill-opacity="0.15"/>
<rect x="23.9961" y="21.2207" width="23.0078" height="1.21094" fill="white" fill-opacity="0.15"/>
<rect x="23.9961" y="23.9453" width="21.7666" height="1.21094" fill="white" fill-opacity="0.15"/>
<rect x="23.9961" y="26.6699" width="20.7979" height="1.21094" fill="white" fill-opacity="0.15"/>
<rect x="23.9961" y="29.3945" width="21.7666" height="1.21094" fill="white" fill-opacity="0.15"/>
<rect x="23.9961" y="32.1191" width="19.1631" height="1.21094" fill="white" fill-opacity="0.15"/>
<rect x="23.9961" y="34.8438" width="20.7979" height="1.21094" fill="white" fill-opacity="0.15"/>
<rect x="23.9961" y="37.5684" width="19.1631" height="1.21094" fill="white" fill-opacity="0.15"/>
<rect x="23.9961" y="40.293" width="23.0078" height="1.21094" fill="white" fill-opacity="0.15"/>
<path fill-rule="evenodd" clip-rule="evenodd" d="M41.2321 24.3389C41.1251 24.8765 41.0219 25.4244 40.9184 25.9738L40.9184 25.9738C40.5804 27.7687 40.2392 29.5801 39.7505 31.1013C39.4168 32.1403 39.0356 32.9679 38.5894 33.5247C38.1582 34.0628 37.7054 34.3056 37.1802 34.3056C36.9108 34.3056 36.7523 34.218 36.6282 34.077C36.4812 33.91 36.3458 33.6214 36.2581 33.1741C36.0819 32.276 36.1485 31.0137 36.3447 29.6703C36.5383 28.345 36.8466 27.0118 37.1085 26.0047C37.1419 25.8764 37.1744 25.7536 37.2059 25.6369C37.3094 25.2964 37.3934 25.0077 37.4561 24.7871C37.4991 24.6358 37.5321 24.5165 37.5545 24.4345L37.58 24.3403L37.5804 24.3389H36.1075L36.0905 24.3966C36.0258 24.6176 35.9434 24.907 35.8513 25.2483C35.8156 25.3652 35.7777 25.4884 35.7374 25.6171C35.422 26.6257 34.9696 27.9651 34.4192 29.2999C33.8656 30.6423 33.2269 31.9454 32.5468 32.9013C32.2069 33.3791 31.8753 33.7434 31.562 33.9826C31.2495 34.2212 30.9958 34.3056 30.7925 34.3056C30.5429 34.3056 30.4451 34.2274 30.3765 34.1318C30.2771 33.9932 30.1848 33.7261 30.1622 33.2744C30.1172 32.376 30.3611 31.1092 30.7437 29.7608C31.1208 28.4317 31.6112 27.0952 32.0097 26.0862C32.0742 25.923 32.1362 25.7685 32.1947 25.6244C32.3304 25.3243 32.4409 25.0676 32.525 24.8665C32.589 24.7135 32.6379 24.5926 32.671 24.5091C32.6876 24.4674 32.7003 24.435 32.7089 24.4126L32.719 24.3866L32.7217 24.3794L32.7225 24.3773L32.7228 24.3766C32.7228 24.3765 32.7229 24.3764 32.624 24.3389H31.2034C31.1201 24.5344 31.0166 24.7812 30.8997 25.0684C30.835 25.2113 30.7643 25.3645 30.6878 25.5266C30.2153 26.5272 29.525 27.8562 28.651 29.1805C27.7744 30.5089 26.7303 31.8057 25.5579 32.7642C24.3858 33.7225 23.1319 34.3056 21.8164 34.3056H21.8107H21.8048H21.7988H21.7926H21.7864H21.78H21.7734H21.7667H21.7599H21.753H21.746H21.7388H21.7315H21.724H21.7165H21.7088H21.701H21.693H21.6849H21.6768H21.6684H21.66H21.6515H21.6428H21.634H21.6251H21.616H21.6069H21.5976H21.5882H21.5787H21.569H21.5593H21.5494H21.5395H21.5294H21.5192H21.5089H21.4984H21.4879H21.4772H21.4665H21.4556H21.4446H21.4335H21.4223H21.411H21.3996H21.388H21.3764H21.3647H21.3528H21.3409H21.3288H21.3167H21.3044H21.292H21.2796H21.267H21.2543H21.2416H21.2287H21.2157H21.2027H21.1895H21.1762H21.1629H21.1494H21.1359H21.1222H21.1085H21.0947H21.0807H21.0667H21.0526H21.0384H21.0241H21.0097H20.9952H20.9807H20.966H20.9513H20.9364H20.9215H20.9065H20.8914H20.8762H20.861H20.8456H20.8302H20.8147H20.7991H20.7834H20.7676H20.7518H20.7359H20.7199H20.7038H20.6876H20.6714H20.6551H20.6387H20.6222H20.6057H20.5891H20.5724H20.5556H20.5387H20.5218H20.5048H20.4878H20.4707H20.4535H20.4362H20.4188H20.4014H20.3839H20.3664H20.3488H20.3311H20.3134H20.2955H20.2777H20.2597H20.2417H20.2236H20.2055H20.1873H20.1691H20.1507H20.1324H20.1139H20.0954H20.0769H20.0583H20.0396H20.0209H20.0021H19.9832H19.9643H19.9454H19.9264H19.9073H19.8882H19.869H19.8498H19.8305H19.8112H19.7918H19.7724H19.753H19.7334H19.7139H19.6943H19.6746H19.6549H19.6351H19.6153H19.5955H19.5756H19.5557H19.5357H19.5157H19.4956H19.4755H19.4554H19.4352H19.415H19.3947H19.3744H19.3541H19.3337H19.3133H19.2929H19.2724H19.2519H19.2313H19.2108H19.1902H19.1695H19.1488H19.1281H19.1074H19.0866H19.0658H19.045H19.0241H19.0032H18.9823H18.9613H18.9404H18.9194H18.8984H18.8773H18.8562H18.8351H18.814H18.7929H18.7717H18.7505H18.7293H18.7081H18.6869H18.6656H18.6443H18.623H18.6017H18.5804H18.559H18.5377H18.5163H18.4949H18.4735H18.4521H18.4306H18.4092H18.3877H18.3663H18.3448H18.3233H18.3018H18.2803H18.2588H18.2373H18.2157H18.1942H18.1726H18.1511H18.1295H18.108H18.0864H18.0649H18.0433H18.0217H18.0002H17.9786H17.957H17.9354H17.9139H17.8923H17.8707H17.8492H17.8276H17.806H17.7845H17.7629H17.7414H17.7199H17.6983H17.6768H17.6553H17.6338H17.6123H17.5908H17.5693H17.5479H17.5264H17.5049H17.4835H17.4621H17.4407H17.4193H17.3979H17.3765H17.3552H17.3339H17.3126H17.2913H17.27H17.2487H17.2275H17.2062H17.185H17.1639H17.1427H17.1216H17.1004H17.0793H17.0583H17.0372H17.0162H16.9952H16.9742H16.9533H16.9324H16.9115H16.8906H16.8698H16.849H16.8282H16.8075H16.7868H16.7661H16.7454H16.7248H16.7042H16.6837H16.6632H16.6427H16.6223H16.6019H16.5815H16.5612H16.5409H16.5206H16.5004H16.4802H16.4601H16.44H16.4199H16.3999H16.3799H16.36H16.3401H16.3203H16.3005H16.2807H16.261H16.2413H16.2217H16.2022H16.1826H16.1632H16.1438H16.1244H16.1051H16.0858H16.0666H16.0474H16.0283H16.0092H15.9902H15.9713H15.9524H15.9335H15.9148H15.896H15.8774H15.8587H15.8402H15.8217H15.8033H15.7849H15.7666H15.7483H15.7301H15.712H15.6939H15.6759H15.658H15.6401H15.6223H15.6045H15.5868H15.5692H15.5517H15.5342H15.5168H15.4994H15.4822H15.465H15.4478H15.4308H15.4138H15.3969H15.38H15.3633H15.3466H15.33H15.3134H15.2969H15.2806H15.2642H15.248H15.2318H15.2158H15.1998H15.1838H15.168H15.1522H15.1366H15.121H15.1055H15.09H15.0747H15.0594H15.0442H15.0292H15.0141H14.9992H14.9844H14.9697H14.955H14.9404H14.926H14.9116H14.8973H14.8831H14.869H14.8549H14.841H14.8272H14.8134H14.7998H14.7862H14.7728H14.7594H14.7462H14.733H14.7199H14.707H14.6941H14.6813H14.6687H14.6561H14.6436H14.6313H14.619H14.6069H14.5948H14.5829H14.571H14.5593H14.5476H14.5361H14.5247H14.5134H14.5022H14.4911H14.4801H14.4692H14.4585H14.4478H14.4373H14.4268H14.4165H14.4063H14.3962H14.3863H14.3764H14.3667H14.357H14.3475H14.3381H14.3288H14.3197H14.3107H14.3017H14.2929H14.2843H14.2757H14.2673H14.259H14.2508H14.2427H14.2348H14.227H14.2193H14.2117H14.2043H14.1969H14.1898H14.1827H14.1758H14.169H14.1623H14.1558H14.1494H14.1431H14.137H14.1309H14.1251H14.1193H14.1137H14.1083H14.1029H14.0977H14.0926H14.0877H14.0829H14.0783H14.0738H14.0694H14.0652H14.0611H14.0571H14.0533H14.0496H14.0461H14.0427H14.0395H14.0364H14.0335H14.0307H14.028H14.0255H14.0232H14.0209H14.0189H14.017H14.0152H14.0136H14.0121H14.0108H14.0097H14.0087H14.0078H14.0071H14.0066H14.0062H14.0059L14.0059 35.0102L14.0059 35.7147H14.0062H14.0066H14.0071H14.0078H14.0087H14.0097H14.0108H14.0121H14.0136H14.0152H14.017H14.0189H14.0209H14.0232H14.0255H14.028H14.0307H14.0335H14.0364H14.0395H14.0427H14.0461H14.0496H14.0533H14.0571H14.0611H14.0652H14.0694H14.0738H14.0783H14.0829H14.0877H14.0926H14.0977H14.1029H14.1083H14.1137H14.1193H14.1251H14.1309H14.137H14.1431H14.1494H14.1558H14.1623H14.169H14.1758H14.1827H14.1898H14.1969H14.2043H14.2117H14.2193H14.227H14.2348H14.2427H14.2508H14.259H14.2673H14.2757H14.2843H14.2929H14.3017H14.3107H14.3197H14.3288H14.3381H14.3475H14.357H14.3667H14.3764H14.3863H14.3962H14.4063H14.4165H14.4268H14.4373H14.4478H14.4585H14.4692H14.4801H14.4911H14.5022H14.5134H14.5247H14.5361H14.5476H14.5593H14.571H14.5829H14.5948H14.6069H14.619H14.6313H14.6436H14.6561H14.6687H14.6813H14.6941H14.707H14.7199H14.733H14.7462H14.7594H14.7728H14.7862H14.7998H14.8134H14.8272H14.841H14.8549H14.869H14.8831H14.8973H14.9116H14.926H14.9404H14.955H14.9697H14.9844H14.9992H15.0141H15.0292H15.0442H15.0594H15.0747H15.09H15.1055H15.121H15.1366H15.1522H15.168H15.1838H15.1998H15.2158H15.2318H15.248H15.2642H15.2806H15.2969H15.3134H15.33H15.3466H15.3633H15.38H15.3969H15.4138H15.4308H15.4478H15.465H15.4822H15.4994H15.5168H15.5342H15.5517H15.5692H15.5868H15.6045H15.6223H15.6401H15.658H15.6759H15.6939H15.712H15.7301H15.7483H15.7666H15.7849H15.8033H15.8217H15.8402H15.8587H15.8774H15.896H15.9148H15.9335H15.9524H15.9713H15.9902H16.0092H16.0283H16.0474H16.0666H16.0858H16.1051H16.1244H16.1438H16.1632H16.1826H16.2022H16.2217H16.2413H16.261H16.2807H16.3005H16.3203H16.3401H16.36H16.3799H16.3999H16.4199H16.44H16.4601H16.4802H16.5004H16.5206H16.5409H16.5612H16.5815H16.6019H16.6223H16.6427H16.6632H16.6837H16.7042H16.7248H16.7454H16.7661H16.7868H16.8075H16.8282H16.849H16.8698H16.8906H16.9115H16.9324H16.9533H16.9742H16.9952H17.0162H17.0372H17.0583H17.0793H17.1004H17.1216H17.1427H17.1639H17.185H17.2062H17.2275H17.2487H17.27H17.2913H17.3126H17.3339H17.3552H17.3765H17.3979H17.4193H17.4407H17.4621H17.4835H17.5049H17.5264H17.5479H17.5693H17.5908H17.6123H17.6338H17.6553H17.6768H17.6983H17.7199H17.7414H17.7629H17.7845H17.806H17.8276H17.8492H17.8707H17.8923H17.9139H17.9354H17.957H17.9786H18.0002H18.0217H18.0433H18.0649H18.0864H18.108H18.1295H18.1511H18.1726H18.1942H18.2157H18.2373H18.2588H18.2803H18.3018H18.3233H18.3448H18.3663H18.3877H18.4092H18.4306H18.4521H18.4735H18.4949H18.5163H18.5377H18.559H18.5804H18.6017H18.623H18.6443H18.6656H18.6869H18.7081H18.7293H18.7505H18.7717H18.7929H18.814H18.8351H18.8562H18.8773H18.8984H18.9194H18.9404H18.9613H18.9823H19.0032H19.0241H19.045H19.0658H19.0866H19.1074H19.1281H19.1488H19.1695H19.1902H19.2108H19.2313H19.2519H19.2724H19.2929H19.3133H19.3337H19.3541H19.3744H19.3947H19.415H19.4352H19.4554H19.4755H19.4956H19.5157H19.5357H19.5557H19.5756H19.5955H19.6153H19.6351H19.6549H19.6746H19.6943H19.7139H19.7334H19.753H19.7724H19.7918H19.8112H19.8305H19.8498H19.869H19.8882H19.9073H19.9264H19.9454H19.9643H19.9832H20.0021H20.0209H20.0396H20.0583H20.0769H20.0954H20.1139H20.1324H20.1507H20.1691H20.1873H20.2055H20.2236H20.2417H20.2597H20.2777H20.2955H20.3134H20.3311H20.3488H20.3664H20.3839H20.4014H20.4188H20.4362H20.4535H20.4707H20.4878H20.5048H20.5218H20.5387H20.5556H20.5724H20.5891H20.6057H20.6222H20.6387H20.6551H20.6714H20.6876H20.7038H20.7199H20.7359H20.7518H20.7676H20.7834H20.7991H20.8147H20.8302H20.8456H20.861H20.8762H20.8914H20.9065H20.9215H20.9364H20.9513H20.966H20.9807H20.9952H21.0097H21.0241H21.0384H21.0526H21.0667H21.0807H21.0947H21.1085H21.1222H21.1359H21.1494H21.1629H21.1762H21.1895H21.2027H21.2157H21.2287H21.2416H21.2543H21.267H21.2796H21.292H21.3044H21.3167H21.3288H21.3409H21.3528H21.3647H21.3764H21.388H21.3996H21.411H21.4223H21.4335H21.4446H21.4556H21.4665H21.4772H21.4879H21.4984H21.5089H21.5192H21.5294H21.5395H21.5494H21.5593H21.569H21.5787H21.5882H21.5976H21.6069H21.616H21.6251H21.634H21.6428H21.6515H21.66H21.6684H21.6768H21.6849H21.693H21.701H21.7088H21.7165H21.724H21.7315H21.7388H21.746H21.753H21.7599H21.7667H21.7734H21.78H21.7864H21.7926H21.7988H21.8048H21.8107H21.8164C23.5661 35.7147 25.1258 34.9375 26.4498 33.8551C27.379 33.0955 28.2151 32.1674 28.9488 31.2C28.8033 31.9668 28.7228 32.7048 28.7549 33.3449C28.7834 33.9136 28.904 34.4967 29.2317 34.9533C29.5902 35.4529 30.1339 35.7147 30.7925 35.7147C31.4028 35.7147 31.9503 35.459 32.4172 35.1025C32.8833 34.7466 33.3091 34.2605 33.695 33.7181C34.0667 33.1957 34.4186 32.5961 34.747 31.9608C34.7482 32.4889 34.7864 32.9919 34.8753 33.4453C34.9877 34.0182 35.1936 34.5799 35.5706 35.0081C35.9704 35.4623 36.5186 35.7147 37.1802 35.7147C38.2443 35.7147 39.0686 35.18 39.689 34.4059C40.0875 33.9085 40.4165 33.2968 40.6955 32.6233C40.8733 33.2337 41.1553 33.8045 41.5856 34.29C42.4096 35.2195 43.6672 35.7147 45.3994 35.7147H45.428H45.4565H45.485H45.5135H45.542H45.5705H45.599H45.6275H45.6559H45.6844H45.7128H45.7412H45.7696H45.798H45.8263H45.8547H45.883H45.9113H45.9396H45.9679H45.9962H46.0245H46.0527H46.0809H46.1091H46.1373H46.1655H46.1937H46.2218H46.2499H46.278H46.3061H46.3342H46.3623H46.3903H46.4183H46.4463H46.4743H46.5023H46.5302H46.5582H46.5861H46.614H46.6418H46.6697H46.6975H46.7253H46.7531H46.7809H46.8086H46.8364H46.8641H46.8918H46.9194H46.9471H46.9747H47.0023H47.0299H47.0574H47.085H47.1125H47.14H47.1674H47.1949H47.2223H47.2497H47.2771H47.3044H47.3318H47.3591H47.3863H47.4136H47.4408H47.468H47.4952H47.5224H47.5495H47.5766H47.6037H47.6307H47.6578H47.6848H47.7118H47.7387H47.7656H47.7925H47.8194H47.8463H47.8731H47.8999H47.9266H47.9534H47.9801H48.0067H48.0334H48.06H48.0866H48.1132H48.1397H48.1662H48.1927H48.2192H48.2456H48.272H48.2983H48.3247H48.351H48.3772H48.4035H48.4297H48.4559H48.482H48.5081H48.5342H48.5603H48.5863H48.6123H48.6382H48.6641H48.69H48.7159H48.7417H48.7675H48.7933H48.819H48.8447H48.8704H48.896H48.9216H48.9471H48.9727H48.9982H49.0236H49.049H49.0744H49.0998H49.1251H49.1504H49.1756H49.2008H49.226H49.2511H49.2762H49.3013H49.3263H49.3513H49.3762H49.4012H49.426H49.4509H49.4757H49.5005H49.5252H49.5499H49.5745H49.5991H49.6237H49.6482H49.6727H49.6972H49.7216H49.746H49.7703H49.7946H49.8189H49.8431H49.8673H49.8914H49.9155H49.9395H49.9636H49.9875H50.0115H50.0353H50.0592H50.083H50.1068H50.1305H50.1542H50.1778H50.2014H50.2249H50.2484H50.2719H50.2953H50.3187H50.342H50.3653H50.3886H50.4118H50.4349H50.458H50.4811H50.5041H50.5271H50.55H50.5729H50.5957H50.6185H50.6413H50.664H50.6866H50.7092H50.7318H50.7543H50.7768H50.7992H50.8216H50.8439H50.8662H50.8884H50.9106H50.9327H50.9548H50.9768H50.9988H51.0208H51.0426H51.0645H51.0863H51.108H51.1297H51.1513H51.1729H51.1945H51.216H51.2374H51.2588H51.2801H51.3014H51.3226H51.3438H51.3649H51.386H51.4071H51.428H51.449H51.4698H51.4906H51.5114H51.5321H51.5528H51.5734H51.5939H51.6144H51.6349H51.6553H51.6756H51.6959H51.7161H51.7363H51.7564H51.7764H51.7965H51.8164H51.8363H51.8561H51.8759H51.8956H51.9153H51.9349H51.9545H51.974H51.9934H52.0128H52.0322H52.0514H52.0706H52.0898H52.1089H52.1279H52.1469H52.1658H52.1847H52.2035H52.2223H52.2409H52.2596H52.2781H52.2966H52.3151H52.3335H52.3518H52.3701H52.3883H52.4064H52.4245H52.4426H52.4605H52.4784H52.4963H52.514H52.5318H52.5494H52.567H52.5845H52.602H52.6194H52.6367H52.654H52.6712H52.6884H52.7055H52.7225H52.7395H52.7564H52.7732H52.79H52.8067H52.8233H52.8399H52.8564H52.8728H52.8892H52.9055H52.9218H52.938H52.9541H52.9701H52.9861H53.002H53.0179H53.0336H53.0494H53.065H53.0806H53.0961H53.1115H53.1269H53.1422H53.1575H53.1726H53.1877H53.2028H53.2177H53.2326H53.2474H53.2622H53.2769H53.2915H53.306H53.3205H53.3349H53.3493H53.3635H53.3777H53.3918H53.4059H53.4199H53.4338H53.4476H53.4614H53.475H53.4887H53.5022H53.5157H53.5291H53.5424H53.5557H53.5688H53.582H53.595H53.6079H53.6208H53.6336H53.6464H53.659H53.6716H53.6841H53.6966H53.7089H53.7212H53.7334H53.7456H53.7576H53.7696H53.7815H53.7934H53.8051H53.8168H53.8284H53.8399H53.8514H53.8627H53.874H53.8852H53.8964H53.9074H53.9184H53.9293H53.9401H53.9509H53.9615H53.9721H53.9826H53.9931H54.0034H54.0137H54.0239H54.034H54.044H54.0539H54.0638H54.0736H54.0833H54.0929H54.1025H54.1119H54.1213H54.1306H54.1398H54.1489H54.158H54.167H54.1758H54.1846H54.1934H54.202H54.2105H54.219H54.2274H54.2357H54.2439H54.252H54.2601H54.2681H54.2759H54.2837H54.2914H54.2991H54.3066H54.314H54.3214H54.3287H54.3359H54.343H54.35H54.3569H54.3638H54.3706H54.3772H54.3838H54.3903H54.3967H54.403H54.4093H54.4154H54.4215H54.4275H54.4333H54.4391H54.4448H54.4505H54.456H54.4614H54.4668H54.472H54.4772H54.4823H54.4872H54.4921H54.4969H54.5017H54.5063H54.5108H54.5152H54.5196H54.5238H54.528H54.5321H54.5361H54.5399H54.5437H54.5474H54.5511H54.5546H54.558H54.5613H54.5646H54.5677H54.5707H54.5737H54.5766H54.5793H54.582H54.5846H54.587H54.5894H54.5917H54.5939H54.596H54.598H54.5999H54.6017H54.6034H54.6051H54.6066H54.608H54.6093H54.6106H54.6117H54.6127H54.6137H54.6145H54.6152H54.6159H54.6164H54.6169H54.6172H54.6175H54.6176L54.6177 35.0102L54.6176 34.3056H54.6175H54.6172H54.6169H54.6164H54.6159H54.6152H54.6145H54.6137H54.6127H54.6117H54.6106H54.6093H54.608H54.6066H54.6051H54.6034H54.6017H54.5999H54.598H54.596H54.5939H54.5917H54.5894H54.587H54.5846H54.582H54.5793H54.5766H54.5737H54.5707H54.5677H54.5646H54.5613H54.558H54.5546H54.5511H54.5474H54.5437H54.5399H54.5361H54.5321H54.528H54.5238H54.5196H54.5152H54.5108H54.5063H54.5017H54.4969H54.4921H54.4872H54.4823H54.4772H54.472H54.4668H54.4614H54.456H54.4505H54.4448H54.4391H54.4333H54.4275H54.4215H54.4154H54.4093H54.403H54.3967H54.3903H54.3838H54.3772H54.3706H54.3638H54.3569H54.35H54.343H54.3359H54.3287H54.3214H54.314H54.3066H54.2991H54.2914H54.2837H54.2759H54.2681H54.2601H54.252H54.2439H54.2357H54.2274H54.219H54.2105H54.202H54.1934H54.1846H54.1758H54.167H54.158H54.1489H54.1398H54.1306H54.1213H54.1119H54.1025H54.0929H54.0833H54.0736H54.0638H54.0539H54.044H54.034H54.0239H54.0137H54.0034H53.9931H53.9826H53.9721H53.9615H53.9509H53.9401H53.9293H53.9184H53.9074H53.8964H53.8852H53.874H53.8627H53.8514H53.8399H53.8284H53.8168H53.8051H53.7934H53.7815H53.7696H53.7576H53.7456H53.7334H53.7212H53.7089H53.6966H53.6841H53.6716H53.659H53.6464H53.6336H53.6208H53.6079H53.595H53.582H53.5688H53.5557H53.5424H53.5291H53.5157H53.5022H53.4887H53.475H53.4614H53.4476H53.4338H53.4199H53.4059H53.3918H53.3777H53.3635H53.3493H53.3349H53.3205H53.306H53.2915H53.2769H53.2622H53.2474H53.2326H53.2177H53.2028H53.1877H53.1726H53.1575H53.1422H53.1269H53.1115H53.0961H53.0806H53.065H53.0494H53.0336H53.0179H53.002H52.9861H52.9701H52.9541H52.938H52.9218H52.9055H52.8892H52.8728H52.8564H52.8399H52.8233H52.8067H52.79H52.7732H52.7564H52.7395H52.7225H52.7055H52.6884H52.6712H52.654H52.6367H52.6194H52.602H52.5845H52.567H52.5494H52.5318H52.514H52.4963H52.4784H52.4605H52.4426H52.4245H52.4064H52.3883H52.3701H52.3518H52.3335H52.3151H52.2966H52.2781H52.2596H52.2409H52.2223H52.2035H52.1847H52.1658H52.1469H52.1279H52.1089H52.0898H52.0706H52.0514H52.0322H52.0128H51.9934H51.974H51.9545H51.9349H51.9153H51.8956H51.8759H51.8561H51.8363H51.8164H51.7965H51.7764H51.7564H51.7363H51.7161H51.6959H51.6756H51.6553H51.6349H51.6144H51.5939H51.5734H51.5528H51.5321H51.5114H51.4906H51.4698H51.449H51.428H51.4071H51.386H51.3649H51.3438H51.3226H51.3014H51.2801H51.2588H51.2374H51.216H51.1945H51.1729H51.1513H51.1297H51.108H51.0863H51.0645H51.0426H51.0208H50.9988H50.9768H50.9548H50.9327H50.9106H50.8884H50.8662H50.8439H50.8216H50.7992H50.7768H50.7543H50.7318H50.7092H50.6866H50.664H50.6413H50.6185H50.5957H50.5729H50.55H50.5271H50.5041H50.4811H50.458H50.4349H50.4118H50.3886H50.3653H50.342H50.3187H50.2953H50.2719H50.2484H50.2249H50.2014H50.1778H50.1542H50.1305H50.1068H50.083H50.0592H50.0353H50.0115H49.9875H49.9636H49.9395H49.9155H49.8914H49.8673H49.8431H49.8189H49.7946H49.7703H49.746H49.7216H49.6972H49.6727H49.6482H49.6237H49.5991H49.5745H49.5499H49.5252H49.5005H49.4757H49.4509H49.426H49.4012H49.3762H49.3513H49.3263H49.3013H49.2762H49.2511H49.226H49.2008H49.1756H49.1504H49.1251H49.0998H49.0744H49.049H49.0236H48.9982H48.9727H48.9471H48.9216H48.896H48.8704H48.8447H48.819H48.7933H48.7675H48.7417H48.7159H48.69H48.6641H48.6382H48.6123H48.5863H48.5603H48.5342H48.5081H48.482H48.4559H48.4297H48.4035H48.3772H48.351H48.3247H48.2983H48.272H48.2456H48.2192H48.1927H48.1662H48.1397H48.1132H48.0866H48.06H48.0334H48.0067H47.9801H47.9534H47.9266H47.8999H47.8731H47.8463H47.8194H47.7925H47.7656H47.7387H47.7118H47.6848H47.6578H47.6307H47.6037H47.5766H47.5495H47.5224H47.4952H47.468H47.4408H47.4136H47.3863H47.3591H47.3318H47.3044H47.2771H47.2497H47.2223H47.1949H47.1674H47.14H47.1125H47.085H47.0574H47.0299H47.0023H46.9747H46.9471H46.9194H46.8918H46.8641H46.8364H46.8086H46.7809H46.7531H46.7253H46.6975H46.6697H46.6418H46.614H46.5861H46.5582H46.5302H46.5023H46.4743H46.4463H46.4183H46.3903H46.3623H46.3342H46.3061H46.278H46.2499H46.2218H46.1937H46.1655H46.1373H46.1091H46.0809H46.0527H46.0245H45.9962H45.9679H45.9396H45.9113H45.883H45.8547H45.8263H45.798H45.7696H45.7412H45.7128H45.6844H45.6559H45.6275H45.599H45.5705H45.542H45.5135H45.485H45.4565H45.428H45.3994C43.9378 34.3056 43.1197 33.8964 42.6401 33.3553C42.1415 32.7928 41.8955 31.963 41.846 30.9036C41.7967 29.8499 41.9455 28.6651 42.1436 27.4828C42.2091 27.0919 42.2813 26.6948 42.3524 26.3043L42.3524 26.3042L42.3524 26.3042L42.3524 26.3042C42.4799 25.604 42.6035 24.9247 42.6776 24.3389H41.2321ZM32.6244 24.3389L32.7229 24.3762L32.6329 24.3389H32.6244Z" fill="white"/>
</g>
</g>
</g>
<defs>
<filter id="filter0_d_271_1196" x="-376.387" y="-315.823" width="823.774" height="823.774" filterUnits="userSpaceOnUse" color-interpolation-filters="sRGB">
<feFlood flood-opacity="0" result="BackgroundImageFix"/>
<feColorMatrix in="SourceAlpha" type="matrix" values="0 0 0 0 0 0 0 0 0 0 0 0 0 0 0 0 0 0 127 0" result="hardAlpha"/>
<feOffset dy="66.0645"/>
<feGaussianBlur stdDeviation="198.194"/>
<feComposite in2="hardAlpha" operator="out"/>
<feColorMatrix type="matrix" values="0 0 0 0 0 0 0 0 0 0 0 0 0 0 0 0 0 0 0.15 0"/>
<feBlend mode="normal" in2="BackgroundImageFix" result="effect1_dropShadow_271_1196"/>
<feBlend mode="normal" in="SourceGraphic" in2="effect1_dropShadow_271_1196" result="shape"/>
</filter>
<clipPath id="clip0_271_1196">
<rect x="20" y="14.5" width="31" height="31" rx="8.45455" fill="white"/>
</clipPath>
<clipPath id="clip1_271_1196">
<rect width="31" height="31" fill="white" transform="translate(20 14.5)"/>
</clipPath>
</defs>
</svg>
