<svg width="1024" height="1024" viewBox="0 0 1024 1024" fill="none" xmlns="http://www.w3.org/2000/svg">
<g clip-path="url(#clip0_10_1437)">
<rect width="1024" height="1024" fill="white"/>
<rect x="227" y="132" width="665" height="40" fill="#D9D9D9"/>
<rect x="132" y="222" width="760" height="40" fill="#D9D9D9"/>
<rect x="132" y="312" width="719" height="40" fill="#D9D9D9"/>
<rect x="132" y="402" width="687" height="40" fill="#D9D9D9"/>
<rect x="132" y="492" width="719" height="40" fill="#D9D9D9"/>
<rect x="132" y="582" width="633" height="40" fill="#D9D9D9"/>
<rect x="132" y="672" width="687" height="40" fill="#D9D9D9"/>
<rect x="132" y="762" width="633" height="40" fill="#D9D9D9"/>
<rect x="132" y="852" width="760" height="40" fill="#D9D9D9"/>
<path fill-rule="evenodd" clip-rule="evenodd" d="M704.682 325.008C701.123 342.861 697.688 361.095 694.24 379.405L694.24 379.408L694.239 379.41L694.238 379.414L694.238 379.416L694.238 379.417C683.058 438.777 671.731 498.923 655.521 549.384C644.451 583.843 631.712 611.625 616.604 630.478C601.922 648.8 586.102 657.501 567.5 657.501C557.692 657.501 551.551 654.223 546.81 648.838C541.42 642.716 536.784 632.549 533.829 617.48C527.9 587.246 530.173 545.093 536.665 500.641C543.082 456.698 553.297 412.533 561.965 379.206C563.075 374.94 564.158 370.856 565.202 366.979C568.623 355.732 571.398 346.194 573.467 338.915C574.885 333.928 575.971 329.998 576.707 327.302C576.954 326.396 577.162 325.629 577.329 325.008H535.476C535.211 325.907 534.934 326.848 534.647 327.83C532.512 335.122 529.79 344.677 526.748 355.947C525.565 359.833 524.303 363.926 522.966 368.203C512.531 401.572 497.555 445.913 479.323 490.126C461.003 534.551 439.792 577.861 417.117 609.735C405.781 625.671 394.609 637.985 383.905 646.159C373.225 654.315 364.161 657.501 356.5 657.501C347.305 657.501 343.041 654.49 340.1 650.393C336.286 645.078 333.173 635.52 332.413 620.329C330.898 590.086 339.087 547.806 351.741 503.21C364.239 459.159 380.479 414.901 393.664 381.52C395.807 376.094 397.866 370.965 399.811 366.178C404.29 356.268 407.936 347.797 410.71 341.169C412.818 336.134 414.424 332.158 415.512 329.418C416.056 328.048 416.47 326.987 416.753 326.256C416.895 325.891 417.004 325.608 417.079 325.41L417.168 325.178L417.193 325.111L417.201 325.09C417.202 325.088 417.203 325.087 416.998 325.008H373.63L373.379 325.597C370.579 332.158 367.053 340.558 363.049 350.394C360.897 355.146 358.546 360.242 356.001 365.633C340.35 398.778 317.473 442.824 288.495 486.734C259.439 530.763 224.741 573.897 185.662 605.845C146.59 637.786 104.463 657.501 60.0001 657.501H59.8104H59.6162H59.4177H59.2148H59.0075H58.7958H58.5799H58.3596H58.135H57.9062H57.6731H57.4358H57.1943H56.9485H56.6986H56.4445H56.1863H55.924H55.6576H55.3871H55.1125H54.8338H54.5512H54.2645H53.9739H53.6793H53.3807H53.0782H52.7717H52.4614H52.1472H51.8292H51.5073H51.1816H50.8521H50.5188H50.1817H49.8409H49.4963H49.1481H48.7962H48.4406H48.0813H47.7184H47.3519H46.9818H46.6081H46.2309H45.8501H45.4658H45.078H44.6868H44.292H43.8938H43.4922H43.0872H42.6788H42.267H41.8519H41.4334H41.0117H40.5866H40.1582H39.7266H39.2918H38.8537H38.4124H37.968H37.5204H37.0696H36.6158H36.1588H35.6987H35.2355H34.7693H34.3001H33.8279H33.3526H32.8744H32.3932H31.9091H31.4221H30.9322H30.4394H29.9437H29.4452H28.9438H28.4397H27.9327H27.423H26.9106H26.3954H25.8775H25.3569H24.8336H24.3077H23.7791H23.2479H22.7141H22.1777H21.6388H21.0974H20.5533H20.0068H19.4578H18.9064H18.3525H17.7961H17.2374H16.6762H16.1127H15.5468H14.9786H14.408H13.8352H13.2601H12.6827H12.1031H11.5212H10.9372H10.3509H9.76251H9.17194H8.57925H7.98445H7.38754H6.78857H6.18755H5.58447H4.97939H4.3723H3.76324H3.15222H2.53925H1.92435H1.30756H0.688858H0.0683136H-0.554092H-1.17833H-1.80438H-2.43222H-3.06183H-3.69321H-4.32631H-4.96114H-5.59766H-6.23586H-6.87572H-7.51723H-8.16035H-8.8051H-9.45142H-10.0993H-10.7487H-11.3997H-12.0522H-12.7062H-13.3616H-14.0185H-14.6769H-15.3366H-15.9978H-16.6603H-17.3242H-17.9894H-18.656H-19.3239H-19.993H-20.6634H-21.3351H-22.008H-22.6821H-23.3574H-24.0339H-24.7115H-25.3903H-26.0702H-26.7511H-27.4332H-28.1163H-28.8005H-29.4857H-30.1719H-30.859H-31.5472H-32.2363H-32.9263H-33.6172H-34.309H-35.0017H-35.6953H-36.3897H-37.0849H-37.7809H-38.4776H-39.1752H-39.8735H-40.5725H-41.2722H-41.9726H-42.6736H-43.3753H-44.0777H-44.7806H-45.4841H-46.1883H-46.8929H-47.5981H-48.3038H-49.01H-49.7167H-50.4239H-51.1315H-51.8395H-52.5479H-53.2567H-53.9659H-54.6754H-55.3852H-56.0954H-56.8058H-57.5166H-58.2275H-58.9387H-59.6501H-60.3618H-61.0736H-61.7855H-62.4976H-63.2098H-63.9221H-64.6346H-65.347H-66.0595H-66.7721H-67.4846H-68.1972H-68.9097H-69.6222H-70.3346H-71.0469H-71.7591H-72.4712H-73.1832H-73.895H-74.6066H-75.318H-76.0292H-76.7402H-77.4509H-78.1613H-78.8715H-79.5813H-80.2908H-81H-81.7088H-82.4172H-83.1252H-83.8328H-84.5399H-85.2466H-85.9528H-86.6585H-87.3637H-88.0684H-88.7725H-89.476H-90.179H-90.8813H-91.583H-92.284H-92.9844H-93.6841H-94.3831H-95.0814H-95.7789H-96.4757H-97.1717H-97.8669H-98.5613H-99.2548H-99.9475H-100.639H-101.33H-102.02H-102.709H-103.397H-104.085H-104.771H-105.456H-106.14H-106.823H-107.505H-108.186H-108.866H-109.545H-110.222H-110.899H-111.574H-112.248H-112.921H-113.593H-114.263H-114.932H-115.6H-116.267H-116.932H-117.596H-118.258H-118.92H-119.579H-120.238H-120.895H-121.55H-122.204H-122.856H-123.507H-124.157H-124.805H-125.451H-126.096H-126.739H-127.38H-128.02H-128.658H-129.295H-129.93H-130.563H-131.194H-131.824H-132.452H-133.078H-133.702H-134.324H-134.945H-135.563H-136.18H-136.795H-137.408H-138.019H-138.628H-139.235H-139.84H-140.443H-141.044H-141.643H-142.24H-142.835H-143.428H-144.018H-144.606H-145.193H-145.777H-146.359H-146.938H-147.515H-148.091H-148.663H-149.234H-149.802H-150.368H-150.931H-151.493H-152.051H-152.608H-153.162H-153.713H-154.262H-154.808H-155.352H-155.894H-156.433H-156.969H-157.503H-158.034H-158.563H-159.089H-159.612H-160.132H-160.65H-161.165H-161.678H-162.187H-162.694H-163.199H-163.7H-164.198H-164.694H-165.187H-165.677H-166.164H-166.648H-167.129H-167.607H-168.082H-168.555H-169.024H-169.49H-169.953H-170.413H-170.87H-171.324H-171.775H-172.222H-172.667H-173.108H-173.546H-173.981H-174.412H-174.841H-175.266H-175.687H-176.106H-176.521H-176.933H-177.341H-177.746H-178.148H-178.546H-178.94H-179.332H-179.719H-180.104H-180.484H-180.862H-181.235H-181.605H-181.972H-182.335H-182.694H-183.049H-183.401H-183.75H-184.094H-184.435H-184.772H-185.105H-185.435H-185.76H-186.082H-186.4H-186.714H-187.025H-187.331H-187.633H-187.932H-188.227H-188.517H-188.804H-189.086H-189.365H-189.64H-189.91H-190.176H-190.439H-190.697H-190.951H-191.201H-191.446H-191.688H-191.925H-192.158H-192.387H-192.612H-192.832H-193.048H-193.259H-193.467H-193.669H-193.868H-194.062H-194.252H-194.437H-194.618H-194.794H-194.966H-195.133H-195.296H-195.454H-195.608H-195.757H-195.901H-196.041H-196.176H-196.307H-196.432H-196.554H-196.67H-196.782H-196.888H-196.99H-197.088H-197.18H-197.268H-197.351H-197.429H-197.502H-197.57H-197.633H-197.691H-197.744H-197.793H-197.836H-197.874H-197.908H-197.936H-197.959H-197.977H-197.99H-197.997C-197.999 657.501 -198 657.501 -198 677.501C-198 697.501 -197.999 697.501 -197.997 697.501H-197.99H-197.977H-197.959H-197.936H-197.908H-197.874H-197.836H-197.793H-197.744H-197.691H-197.633H-197.57H-197.502H-197.429H-197.351H-197.268H-197.18H-197.088H-196.99H-196.888H-196.782H-196.67H-196.554H-196.432H-196.307H-196.176H-196.041H-195.901H-195.757H-195.608H-195.454H-195.296H-195.133H-194.966H-194.794H-194.618H-194.437H-194.252H-194.062H-193.868H-193.669H-193.467H-193.259H-193.048H-192.832H-192.612H-192.387H-192.158H-191.925H-191.688H-191.446H-191.201H-190.951H-190.697H-190.439H-190.176H-189.91H-189.64H-189.365H-189.086H-188.804H-188.517H-188.227H-187.932H-187.633H-187.331H-187.025H-186.714H-186.4H-186.082H-185.76H-185.435H-185.105H-184.772H-184.435H-184.094H-183.75H-183.401H-183.049H-182.694H-182.335H-181.972H-181.605H-181.235H-180.862H-180.484H-180.104H-179.719H-179.332H-178.94H-178.546H-178.148H-177.746H-177.341H-176.933H-176.521H-176.106H-175.687H-175.266H-174.841H-174.412H-173.981H-173.546H-173.108H-172.667H-172.222H-171.775H-171.324H-170.87H-170.413H-169.953H-169.49H-169.024H-168.555H-168.082H-167.607H-167.129H-166.648H-166.164H-165.677H-165.187H-164.694H-164.198H-163.7H-163.199H-162.694H-162.187H-161.678H-161.165H-160.65H-160.132H-159.612H-159.089H-158.563H-158.034H-157.503H-156.969H-156.433H-155.894H-155.352H-154.808H-154.262H-153.713H-153.162H-152.608H-152.051H-151.493H-150.931H-150.368H-149.802H-149.234H-148.663H-148.091H-147.515H-146.938H-146.359H-145.777H-145.193H-144.606H-144.018H-143.428H-142.835H-142.24H-141.643H-141.044H-140.443H-139.84H-139.235H-138.628H-138.019H-137.408H-136.795H-136.18H-135.563H-134.945H-134.324H-133.702H-133.078H-132.452H-131.824H-131.194H-130.563H-129.93H-129.295H-128.658H-128.02H-127.38H-126.739H-126.096H-125.451H-124.805H-124.157H-123.507H-122.856H-122.204H-121.55H-120.895H-120.238H-119.579H-118.92H-118.258H-117.596H-116.932H-116.267H-115.6H-114.932H-114.263H-113.593H-112.921H-112.248H-111.574H-110.899H-110.222H-109.545H-108.866H-108.186H-107.505H-106.823H-106.14H-105.456H-104.771H-104.085H-103.397H-102.709H-102.02H-101.33H-100.639H-99.9475H-99.2548H-98.5613H-97.8669H-97.1717H-96.4757H-95.7789H-95.0814H-94.3831H-93.6841H-92.9844H-92.284H-91.583H-90.8813H-90.179H-89.476H-88.7725H-88.0684H-87.3637H-86.6585H-85.9528H-85.2466H-84.5399H-83.8328H-83.1252H-82.4172H-81.7088H-81H-80.2908H-79.5813H-78.8715H-78.1613H-77.4509H-76.7402H-76.0292H-75.318H-74.6066H-73.895H-73.1832H-72.4712H-71.7591H-71.0469H-70.3346H-69.6222H-68.9097H-68.1972H-67.4846H-66.7721H-66.0595H-65.347H-64.6346H-63.9221H-63.2098H-62.4976H-61.7855H-61.0736H-60.3618H-59.6501H-58.9387H-58.2275H-57.5166H-56.8058H-56.0954H-55.3852H-54.6754H-53.9659H-53.2567H-52.5479H-51.8395H-51.1315H-50.4239H-49.7167H-49.01H-48.3038H-47.5981H-46.8929H-46.1883H-45.4841H-44.7806H-44.0777H-43.3753H-42.6736H-41.9726H-41.2722H-40.5725H-39.8735H-39.1752H-38.4776H-37.7809H-37.0849H-36.3897H-35.6953H-35.0017H-34.309H-33.6172H-32.9263H-32.2363H-31.5472H-30.859H-30.1719H-29.4857H-28.8005H-28.1163H-27.4332H-26.7511H-26.0702H-25.3903H-24.7115H-24.0339H-23.3574H-22.6821H-22.008H-21.3351H-20.6634H-19.993H-19.3239H-18.656H-17.9894H-17.3242H-16.6603H-15.9978H-15.3366H-14.6769H-14.0185H-13.3616H-12.7062H-12.0522H-11.3997H-10.7487H-10.0993H-9.45142H-8.8051H-8.16035H-7.51723H-6.87572H-6.23586H-5.59766H-4.96114H-4.32631H-3.69321H-3.06183H-2.43222H-1.80438H-1.17833H-0.554092H0.0683136H0.688858H1.30756H1.92435H2.53925H3.15222H3.76324H4.3723H4.97939H5.58447H6.18755H6.78857H7.38754H7.98445H8.57925H9.17194H9.76251H10.3509H10.9372H11.5212H12.1031H12.6827H13.2601H13.8352H14.408H14.9786H15.5468H16.1127H16.6762H17.2374H17.7961H18.3525H18.9064H19.4578H20.0068H20.5533H21.0974H21.6388H22.1777H22.7141H23.2479H23.7791H24.3077H24.8336H25.3569H25.8775H26.3954H26.9106H27.423H27.9327H28.4397H28.9438H29.4452H29.9437H30.4394H30.9322H31.4221H31.9091H32.3932H32.8744H33.3526H33.8279H34.3001H34.7693H35.2355H35.6987H36.1588H36.6158H37.0696H37.5204H37.968H38.4124H38.8537H39.2918H39.7266H40.1582H40.5866H41.0117H41.4334H41.8519H42.267H42.6788H43.0872H43.4922H43.8938H44.292H44.6868H45.078H45.4658H45.8501H46.2309H46.6081H46.9818H47.3519H47.7184H48.0813H48.4406H48.7962H49.1481H49.4963H49.8409H50.1817H50.5188H50.8521H51.1816H51.5073H51.8292H52.1472H52.4614H52.7717H53.0782H53.3807H53.6793H53.9739H54.2645H54.5512H54.8338H55.1125H55.3871H55.6576H55.924H56.1863H56.4445H56.6986H56.9485H57.1943H57.4358H57.6731H57.9062H58.135H58.3596H58.5799H58.7958H59.0075H59.2148H59.4177H59.6162H59.8104H60.0001C116.787 697.501 167.597 672.278 210.979 636.813C245.177 608.856 275.582 573.884 301.745 537.868C295.169 568.14 291.222 597.553 292.463 622.329C293.39 640.842 297.308 659.369 307.603 673.715C318.772 689.277 335.695 697.501 356.5 697.501C375.714 697.501 393.119 689.453 408.183 677.949C423.223 666.463 437.071 650.691 449.711 632.923C464.327 612.377 478.038 588.143 490.627 562.569C489.884 585.022 490.902 606.44 494.577 625.178C498.231 643.812 504.868 661.731 516.787 675.27C529.355 689.545 546.557 697.501 567.5 697.501C601.398 697.501 627.765 680.515 647.818 655.492C662.514 637.153 674.36 613.92 684.262 588.22C689.752 611.611 699.44 633.456 715.471 651.541C741.889 681.343 782.409 697.501 839 697.501H839.943H840.885H841.828H842.77H843.711H844.652H845.593H846.533H847.473H848.412H849.351H850.289H851.227H852.165H853.102H854.038H854.974H855.91H856.845H857.779H858.713H859.647H860.58H861.512H862.444H863.375H864.306H865.236H866.166H867.095H868.023H868.951H869.879H870.805H871.732H872.657H873.582H874.507H875.43H876.354H877.276H878.198H879.119H880.04H880.96H881.879H882.798H883.716H884.633H885.55H886.466H887.381H888.295H889.209H890.122H891.035H891.947H892.858H893.768H894.677H895.586H896.494H897.402H898.308H899.214H900.119H901.023H901.927H902.83H903.731H904.633H905.533H906.432H907.331H908.229H909.126H910.022H910.918H911.812H912.706H913.599H914.491H915.382H916.272H917.162H918.05H918.938H919.825H920.71H921.595H922.479H923.363H924.245H925.126H926.006H926.886H927.764H928.642H929.519H930.394H931.269H932.142H933.015H933.887H934.758H935.627H936.496H937.364H938.231H939.096H939.961H940.825H941.688H942.549H943.41H944.269H945.128H945.985H946.841H947.697H948.551H949.404H950.256H951.107H951.957H952.806H953.653H954.5H955.345H956.189H957.032H957.875H958.715H959.555H960.394H961.231H962.067H962.902H963.736H964.569H965.4H966.23H967.06H967.887H968.714H969.54H970.364H971.187H972.009H972.829H973.648H974.466H975.283H976.099H976.913H977.726H978.538H979.348H980.157H980.965H981.772H982.577H983.381H984.183H984.984H985.784H986.583H987.38H988.176H988.971H989.764H990.556H991.346H992.135H992.923H993.709H994.494H995.278H996.06H996.841H997.62H998.398H999.174H999.949H1000.72H1001.5H1002.27H1003.04H1003.8H1004.57H1005.33H1006.1H1006.86H1007.62H1008.38H1009.14H1009.89H1010.65H1011.4H1012.15H1012.9H1013.65H1014.4H1015.14H1015.88H1016.63H1017.37H1018.11H1018.84H1019.58H1020.31H1021.05H1021.78H1022.51H1023.23H1023.96H1024.69H1025.41H1026.13H1026.85H1027.57H1028.28H1029H1029.71H1030.42H1031.13H1031.84H1032.55H1033.25H1033.96H1034.66H1035.36H1036.06H1036.75H1037.45H1038.14H1038.83H1039.52H1040.21H1040.89H1041.58H1042.26H1042.94H1043.62H1044.3H1044.97H1045.64H1046.32H1046.99H1047.65H1048.32H1048.99H1049.65H1050.31H1050.97H1051.62H1052.28H1052.93H1053.59H1054.23H1054.88H1055.53H1056.17H1056.82H1057.46H1058.09H1058.73H1059.37H1060H1060.63H1061.26H1061.89H1062.51H1063.13H1063.75H1064.37H1064.99H1065.61H1066.22H1066.83H1067.44H1068.05H1068.65H1069.26H1069.86H1070.46H1071.06H1071.65H1072.24H1072.84H1073.42H1074.01H1074.6H1075.18H1075.76H1076.34H1076.92H1077.49H1078.07H1078.64H1079.21H1079.77H1080.34H1080.9H1081.46H1082.02H1082.57H1083.13H1083.68H1084.23H1084.78H1085.32H1085.86H1086.41H1086.94H1087.48H1088.02H1088.55H1089.08H1089.61H1090.13H1090.65H1091.18H1091.69H1092.21H1092.73H1093.24H1093.75H1094.26H1094.76H1095.27H1095.77H1096.27H1096.76H1097.26H1097.75H1098.24H1098.73H1099.21H1099.69H1100.17H1100.65H1101.13H1101.6H1102.07H1102.54H1103.01H1103.47H1103.93H1104.39H1104.85H1105.3H1105.76H1106.21H1106.65H1107.1H1107.54H1107.98H1108.42H1108.85H1109.29H1109.72H1110.15H1110.57H1111H1111.42H1111.83H1112.25H1112.66H1113.07H1113.48H1113.89H1114.29H1114.69H1115.09H1115.49H1115.88H1116.27H1116.66H1117.04H1117.43H1117.81H1118.19H1118.56H1118.94H1119.31H1119.67H1120.04H1120.4H1120.76H1121.12H1121.47H1121.83H1122.18H1122.52H1122.87H1123.21H1123.55H1123.88H1124.22H1124.55H1124.88H1125.2H1125.53H1125.85H1126.17H1126.48H1126.79H1127.1H1127.41H1127.71H1128.02H1128.32H1128.61H1128.91H1129.2H1129.48H1129.77H1130.05H1130.33H1130.61H1130.88H1131.15H1131.42H1131.69H1131.95H1132.21H1132.47H1132.72H1132.98H1133.22H1133.47H1133.71H1133.95H1134.19H1134.43H1134.66H1134.89H1135.11H1135.34H1135.56H1135.78H1135.99H1136.2H1136.41H1136.62H1136.82H1137.02H1137.22H1137.41H1137.6H1137.79H1137.98H1138.16H1138.34H1138.51H1138.69H1138.86H1139.03H1139.19H1139.35H1139.51H1139.67H1139.82H1139.97H1140.12H1140.26H1140.4H1140.54H1140.67H1140.8H1140.93H1141.06H1141.18H1141.3H1141.42H1141.53H1141.64H1141.75H1141.85H1141.95H1142.05H1142.14H1142.23H1142.32H1142.41H1142.49H1142.57H1142.64H1142.72H1142.78H1142.85H1142.91H1142.97H1143.03H1143.08H1143.13H1143.18H1143.22H1143.27H1143.3H1143.34H1143.37H1143.4H1143.42H1143.44H1143.46H1143.47H1143.49H1143.49H1143.5C1143.5 697.501 1143.5 697.501 1143.5 677.501C1143.5 657.501 1143.5 657.501 1143.5 657.501H1143.49H1143.49H1143.47H1143.46H1143.44H1143.42H1143.4H1143.37H1143.34H1143.3H1143.27H1143.22H1143.18H1143.13H1143.08H1143.03H1142.97H1142.91H1142.85H1142.78H1142.72H1142.64H1142.57H1142.49H1142.41H1142.32H1142.23H1142.14H1142.05H1141.95H1141.85H1141.75H1141.64H1141.53H1141.42H1141.3H1141.18H1141.06H1140.93H1140.8H1140.67H1140.54H1140.4H1140.26H1140.12H1139.97H1139.82H1139.67H1139.51H1139.35H1139.19H1139.03H1138.86H1138.69H1138.51H1138.34H1138.16H1137.98H1137.79H1137.6H1137.41H1137.22H1137.02H1136.82H1136.62H1136.41H1136.2H1135.99H1135.78H1135.56H1135.34H1135.11H1134.89H1134.66H1134.43H1134.19H1133.95H1133.71H1133.47H1133.22H1132.98H1132.72H1132.47H1132.21H1131.95H1131.69H1131.42H1131.15H1130.88H1130.61H1130.33H1130.05H1129.77H1129.48H1129.2H1128.91H1128.61H1128.32H1128.02H1127.71H1127.41H1127.1H1126.79H1126.48H1126.17H1125.85H1125.53H1125.2H1124.88H1124.55H1124.22H1123.88H1123.55H1123.21H1122.87H1122.52H1122.18H1121.83H1121.47H1121.12H1120.76H1120.4H1120.04H1119.67H1119.31H1118.94H1118.56H1118.19H1117.81H1117.43H1117.04H1116.66H1116.27H1115.88H1115.49H1115.09H1114.69H1114.29H1113.89H1113.48H1113.07H1112.66H1112.25H1111.83H1111.42H1111H1110.57H1110.15H1109.72H1109.29H1108.85H1108.42H1107.98H1107.54H1107.1H1106.65H1106.21H1105.76H1105.3H1104.85H1104.39H1103.93H1103.47H1103.01H1102.54H1102.07H1101.6H1101.13H1100.65H1100.17H1099.69H1099.21H1098.73H1098.24H1097.75H1097.26H1096.76H1096.27H1095.77H1095.27H1094.76H1094.26H1093.75H1093.24H1092.73H1092.21H1091.69H1091.18H1090.65H1090.13H1089.61H1089.08H1088.55H1088.02H1087.48H1086.94H1086.41H1085.86H1085.32H1084.78H1084.23H1083.68H1083.13H1082.57H1082.02H1081.46H1080.9H1080.34H1079.77H1079.21H1078.64H1078.07H1077.49H1076.92H1076.34H1075.76H1075.18H1074.6H1074.01H1073.42H1072.84H1072.24H1071.65H1071.06H1070.46H1069.86H1069.26H1068.65H1068.05H1067.44H1066.83H1066.22H1065.61H1064.99H1064.37H1063.75H1063.13H1062.51H1061.89H1061.26H1060.63H1060H1059.37H1058.73H1058.09H1057.46H1056.82H1056.17H1055.53H1054.88H1054.23H1053.59H1052.93H1052.28H1051.62H1050.97H1050.31H1049.65H1048.99H1048.32H1047.65H1046.99H1046.32H1045.64H1044.97H1044.3H1043.62H1042.94H1042.26H1041.58H1040.89H1040.21H1039.52H1038.83H1038.14H1037.45H1036.75H1036.06H1035.36H1034.66H1033.96H1033.25H1032.55H1031.84H1031.13H1030.42H1029.71H1029H1028.28H1027.57H1026.85H1026.13H1025.41H1024.69H1023.96H1023.23H1022.51H1021.78H1021.05H1020.31H1019.58H1018.84H1018.11H1017.37H1016.63H1015.88H1015.14H1014.4H1013.65H1012.9H1012.15H1011.4H1010.65H1009.89H1009.14H1008.38H1007.62H1006.86H1006.1H1005.33H1004.57H1003.8H1003.04H1002.27H1001.5H1000.72H999.949H999.174H998.398H997.62H996.841H996.06H995.278H994.494H993.709H992.923H992.135H991.346H990.556H989.764H988.971H988.176H987.38H986.583H985.784H984.984H984.183H983.381H982.577H981.772H980.965H980.157H979.348H978.538H977.726H976.913H976.099H975.283H974.466H973.648H972.829H972.009H971.187H970.364H969.54H968.714H967.887H967.06H966.23H965.4H964.569H963.736H962.902H962.067H961.231H960.394H959.555H958.715H957.875H957.032H956.189H955.345H954.5H953.653H952.806H951.957H951.107H950.256H949.404H948.551H947.697H946.841H945.985H945.128H944.269H943.41H942.549H941.688H940.825H939.961H939.096H938.231H937.364H936.496H935.627H934.758H933.887H933.015H932.142H931.269H930.394H929.519H928.642H927.764H926.886H926.006H925.126H924.245H923.363H922.479H921.595H920.71H919.825H918.938H918.05H917.162H916.272H915.382H914.491H913.599H912.706H911.812H910.918H910.022H909.126H908.229H907.331H906.432H905.533H904.633H903.731H902.83H901.927H901.023H900.119H899.214H898.308H897.402H896.494H895.586H894.677H893.768H892.858H891.947H891.035H890.122H889.209H888.295H887.381H886.466H885.55H884.633H883.716H882.798H881.879H880.96H880.04H879.119H878.198H877.276H876.354H875.43H874.507H873.582H872.657H871.732H870.805H869.879H868.951H868.023H867.095H866.166H865.236H864.306H863.375H862.444H861.512H860.58H859.647H858.713H857.779H856.845H855.91H854.974H854.038H853.102H852.165H851.227H850.289H849.351H848.412H847.473H846.533H845.593H844.652H843.711H842.77H841.828H840.885H839.943H839C790.091 657.501 762.048 643.784 745.404 625.007C728.222 605.625 720.006 577.338 718.353 542.003C716.708 506.833 721.674 467.409 728.225 428.313C730.406 415.293 732.803 402.128 735.154 389.212L735.155 389.204L735.158 389.186L735.16 389.177C739.328 366.28 743.354 344.163 745.793 325.008H704.682ZM417.024 325.008L417.206 325.077L417.04 325.008H417.024Z" fill="black"/>
</g>
<defs>
<clipPath id="clip0_10_1437">
<rect width="1024" height="1024" fill="white"/>
</clipPath>
</defs>
</svg>
